<?xml version="1.0" encoding="UTF-8" standalone="no"?>
<svg
   xmlns:dc="http://purl.org/dc/elements/1.1/"
   xmlns:cc="http://creativecommons.org/ns#"
   xmlns:rdf="http://www.w3.org/1999/02/22-rdf-syntax-ns#"
   xmlns:svg="http://www.w3.org/2000/svg"
   xmlns="http://www.w3.org/2000/svg"
   xmlns:sodipodi="http://sodipodi.sourceforge.net/DTD/sodipodi-0.dtd"
   xmlns:inkscape="http://www.inkscape.org/namespaces/inkscape"
   version="1.1"
   x="0"
   y="0"
   width="588.954"
   height="849.606"
   viewBox="0, 0, 588.954, 849.606"
   id="svg56924"
   inkscape:version="0.91 r13725"
   sodipodi:docname="takeout-sfdsdfsd.svg">
  <metadata
     id="metadata57050">
    <rdf:RDF>
      <cc:Work
         rdf:about="">
        <dc:format>image/svg+xml</dc:format>
        <dc:type
           rdf:resource="http://purl.org/dc/dcmitype/StillImage" />
      </cc:Work>
    </rdf:RDF>
  </metadata>
  <sodipodi:namedview
     pagecolor="#ffffff"
     bordercolor="#666666"
     borderopacity="1"
     objecttolerance="10"
     gridtolerance="10"
     guidetolerance="10"
     inkscape:pageopacity="0"
     inkscape:pageshadow="2"
     inkscape:window-width="1916"
     inkscape:window-height="1035"
     id="namedview57048"
     showgrid="false"
     showguides="true"
     inkscape:guide-bbox="true"
     inkscape:zoom="0.42474482"
     inkscape:cx="294.47699"
     inkscape:cy="420.43598"
     inkscape:window-x="4"
     inkscape:window-y="1"
     inkscape:window-maximized="1"
     inkscape:current-layer="Layer_1" />
  <defs
     id="defs56926">
    <clipPath
       id="Clip_1">
      <path
         d="M46.044,168.918 L100.001,168.918 L100.001,255.851 L46.044,255.851 z"
         id="path56929" />
    </clipPath>
    <clipPath
       id="Clip_2">
      <path
         d="M426.021,80.303 L459.831,80.303 L459.831,143.996 L426.021,143.996 z"
         id="path56932" />
    </clipPath>
    <clipPath
       id="Clip_3">
      <path
         d="M294.049,459.313 L351.919,459.313 L351.919,643.881 L294.049,643.881 z"
         id="path56935" />
    </clipPath>
    <clipPath
       id="Clip_4">
      <path
         d="M348.491,439.113 L441.629,439.113 L441.629,604.841 L348.491,604.841 z"
         id="path56938" />
    </clipPath>
    <clipPath
       id="Clip_5">
      <path
         d="M236.231,398.061 L267.094,398.061 L267.094,408.461 L236.231,408.461 z"
         id="path56941" />
    </clipPath>
    <clipPath
       id="Clip_6">
      <path
         d="M55.521,219.671 L494.271,219.671 L494.271,446.033 L55.521,446.033 z"
         id="path56944" />
    </clipPath>
    <clipPath
       id="Clip_7">
      <path
         d="M348.219,268.263 L398.059,268.263 L398.059,343.193 L348.219,343.193 z"
         id="path56947" />
    </clipPath>
    <clipPath
       id="Clip_8">
      <path
         d="M363.374,305.156 L378.999,305.156 L378.999,320.781 L363.374,320.781 z"
         id="path56950" />
    </clipPath>
    <clipPath
       id="Clip_9">
      <path
         d="M139.839,250.448 L210.129,250.448 L210.129,286.238 L139.839,286.238 z"
         id="path56953" />
    </clipPath>
    <clipPath
       id="Clip_10">
      <path
         d="M178.231,306.143 L216.391,306.143 L216.391,375.846 L178.231,375.846 z"
         id="path56956" />
    </clipPath>
    <clipPath
       id="Clip_11">
      <path
         d="M186.876,341.026 L202.501,341.026 L202.501,356.651 L186.876,356.651 z"
         id="path56959" />
    </clipPath>
    <clipPath
       id="Clip_12">
      <path
         d="M442.836,283.163 L477.536,283.163 L477.536,323.213 L442.836,323.213 z"
         id="path56962" />
    </clipPath>
    <clipPath
       id="Clip_13">
      <path
         d="M100.324,374.638 L133.591,374.638 L133.591,418.618 L100.324,418.618 z"
         id="path56965" />
    </clipPath>
    <clipPath
       id="Clip_14">
      <path
         d="M487.534,46.421 L521.674,46.421 L521.674,157.411 L487.534,157.411 z"
         id="path56968" />
    </clipPath>
    <clipPath
       id="Clip_15">
      <path
         d="M370.501,126.203 L455.896,126.203 L455.896,213.118 L370.501,213.118 z"
         id="path56971" />
    </clipPath>
  </defs>
  <g
     id="Layer_1">
    <g
       id="g57612"
       transform="translate(-7.0630643,30.606612)">
      <path
         style="fill:#000000"
         inkscape:connector-curvature="0"
         id="path14912"
         d="m 477.76928,647.67593 53.41644,-239.60431 c 0,0 19.17617,-7.90878 26.53681,-29.45319 8.84868,-25.89921 -5.01643,-88.05768 -5.01643,-88.05768 0,0 0.19458,-2.78931 0.23164,-7.14049 0.0223,-3.13278 -15.96099,6.82414 -14.2135,2.86885 13.64273,-30.88491 15.43657,-68.697 6.28581,-74.65343 -11.61355,-7.54724 -143.36175,-36.995 -148.8155,-37.03116 -47.67545,-0.29827 -73.50435,46.46746 -73.50435,46.46746 l -18.17365,31.61703 -41.89923,-30.00455 c 0,0 -22.48402,-1.04305 -26.76475,-1.04305 -4.28072,0 -118.22034,70.21186 -118.22034,70.21186 0,0 -31.321589,-2.11142 -59.452084,13.18732 -28.136055,15.29332 -12.860715,78.45869 -12.860715,78.45869 l 127.374809,320.5721 143.44144,60.55864 z" />
      <path
         style="fill:#ffffff"
         inkscape:connector-curvature="0"
         id="path14914"
         d="m 323.50557,466.75384 -85.84064,15.44697 24.16481,13.82545 8.33907,115.43561 -30.0077,34.1388 80.00883,71.54053 z" />
      <path
         style="fill:#ffffff"
         inkscape:connector-curvature="0"
         id="path14916"
         d="m 319.33603,449.68535 -95.00435,24.38614 -116.673,-58.53037 c 0,0 150.84469,17.07392 211.67735,34.14423" />
      <path
         style="fill:#ffffff"
         inkscape:connector-curvature="0"
         id="path14918"
         d="m 251.00191,505.77891 6.662,92.67279 -70.00195,78.04291 -96.672169,-254.45473 z" />
      <path
         style="fill:#ffffff"
         inkscape:connector-curvature="0"
         id="path14920"
         d="m 307.67059,726.0858 -74.99984,-72.35401 -37.50361,39.02326 115.00146,46.34092 z" />
      <path
         style="fill:#ffffff"
         inkscape:connector-curvature="0"
         id="path14922"
         d="m 331.99846,738.46869 4.83667,-289.59682 20.00452,-8.9446 c 0,0 6.90661,0.57486 52.63813,8.48363 45.72595,7.91782 94.40764,-24.45846 94.40764,-24.45846 l -47.87558,217.58989 c 0,0 -33.91781,18.52552 -65.65265,39.4987 -17.74741,11.7321 -58.35873,57.42766 -58.35873,57.42766" />
      <path
         style="fill:#ffffff"
         inkscape:connector-curvature="0"
         id="path14924"
         d="m 360.06409,421.65122 c 0,0 50.97402,13.04812 70.79879,10.21362 30.24306,-4.31503 95.2638,-38.07963 102.95057,-57.53432 7.68493,-19.45107 0,-67.78952 0,-67.78952 z" />
      <path
         style="fill:#ffffff"
         inkscape:connector-curvature="0"
         id="path14926"
         d="m 299.51682,427.55342 c 0,0 -36.59003,-87.90402 -68.38045,-93.07048 -31.78487,-5.16105 -113.25397,-14.71485 -113.25397,-14.71485 0,0 -49.191308,2.96105 -46.921225,30.27028 2.270083,27.32008 15.136356,50.93795 15.136356,50.93795 0,0 101.406909,0 213.419289,26.5771" />
      <path
         style="fill:#ffffff"
         inkscape:connector-curvature="0"
         id="path14928"
         d="m 294.45778,273.39645 c 0,0 -35.37994,-46.62112 -67.95424,-22.50612 -32.57245,24.10956 -76.44156,46.61207 -76.44156,46.61207 l 88.36274,12.87097 z" />
      <path
         style="fill:#ffffff"
         inkscape:connector-curvature="0"
         id="path14930"
         d="m 317.59409,266.42226 c 0,0 40.01832,-84.29401 87.50475,-72.99575 47.48641,11.29825 105.3967,28.24563 105.3967,28.24563 0,0 51.1797,13.50367 -6.80469,84.61036 z" />
      <path
         style="fill:#f5db8b"
         inkscape:connector-curvature="0"
         id="path14932"
         d="m 441.92977,342.69541 c 0,0 11.58205,-5.64913 11.58205,-10.16843 0,-4.5193 11.58206,0 0,-4.5193 -11.58205,-4.5193 -17.37308,1.12983 -17.37308,1.12983 0,0 -4.63283,0 -4.63283,-4.51931 0,-4.5193 9.26566,-6.77895 4.63283,-12.42807 -4.63283,-5.64913 -8.10744,-9.03861 -12.74027,-7.90878 -4.63281,1.12982 -15.05666,7.90878 -11.58205,13.5579 3.47462,5.64913 5.79104,15.81756 5.79104,15.81756 0,0 -9.26565,6.77895 -11.58207,2.25965 -2.3164,-4.5193 0,-6.77895 -4.63281,-11.29826 -4.63283,-4.5193 -10.42386,-6.77895 -10.42386,-6.77895 l 1.15822,12.42808 c 0,0 -4.63283,3.38948 -8.10744,1.12983 -3.47463,-2.25965 -1.15822,-16.94738 -1.15822,-16.94738 0,0 4.81814,-10.63844 10.42386,-10.16843 11.59687,0.97075 12.74025,-6.77895 12.74025,-6.77895 l -13.00339,-1.98488 -22.90097,27.97086 3.47461,18.0772 0,11.29826 30.11335,-2.25965 c 0,0 -2.31641,5.64912 -6.94924,6.77895 -4.63281,1.12982 -33.58796,7.90878 -33.58796,2.25965 l 0,-13.5579 -8.10744,7.90877 c 0,0 9.26565,18.07721 8.10744,25.98598 -1.1582,7.90878 -6.94923,20.33686 0,19.20703 6.94924,-1.12982 23.16411,-21.46668 23.16411,-21.46668 l 30.11335,-14.68773 4.63282,-18.0772 5.79103,4.5193 2.31641,10.16843 z" />
      <path
         style="fill:#f5db8b"
         inkscape:connector-curvature="0"
         id="path14934"
         d="m 290.20114,331.08081 -3.43756,-13.7441 -4.1232,0.66885 c 0,0 -1.38058,3.34971 -2.40537,-0.33442 -1.02848,-3.68775 -2.40351,-8.71322 -2.40351,-9.7165 0,-1.0069 2.06068,-5.02908 2.06068,-5.02908 0,0 0,-4.70007 -1.02848,-4.70007 -1.0322,0 -13.05901,5.70335 -13.05901,5.70335 l -5.83735,5.3599 9.96057,5.69793 4.80887,11.73211 c 0,0 -8.19639,-1.9433 -8.19639,-3.28102 0,-1.34133 -0.95807,-5.60755 -2.68148,-5.94197 -1.7197,-0.33443 -13.51486,-3.17798 -13.51486,-3.17798 0,0 -4.12322,6.03779 -3.09473,6.03779 1.03405,0 24.73927,12.0575 25.08765,13.40063 0.34283,1.34133 3.432,7.71355 3.432,7.71355 l 3.78038,10.05092 9.96613,-5.69793 3.432,9.04764 -8.58925,1.67575 3.78038,9.38207 14.08933,19.10761 3.432,-1.67576 z" />
      <path
         style="fill:#000000"
         inkscape:connector-curvature="0"
         id="path14940"
         d="M 349.17696,359.92299 517.74683,60.34213 c 0,0 4.77551,-27.96544 -8.19083,-32.62393 -12.9719,-4.66031 -30.02625,-5.98356 -36.16381,0 -6.14868,5.9962 -147.42196,263.63253 -147.42196,263.63253 L 267.97286,62.33604 c 0,0 -6.9863,-11.98518 -26.69988,-7.32669 -19.71173,4.6603 -23.80715,21.97284 -23.80715,21.97284 l 96.90382,336.8651 42.31249,-20.63513 z" />
      <path
         style="fill:#f7f7f7"
         inkscape:connector-curvature="0"
         id="path14942"
         d="m 256.7151,70.78714 c 0,0 -18.53128,-10.53901 -27.79693,6.02874 l 91.11279,320.87039 21.61675,-9.03861 z" />
      <path
         style="fill:#f7f7f7"
         inkscape:connector-curvature="0"
         id="path14944"
         d="m 341.64399,347.97395 c 1.54737,-4.5193 165.23794,-292.24513 165.23794,-292.24513 0,0 7.72384,-19.58665 -23.1641,-19.58665 L 329.29289,311.81954 Z" />
      <g
         style="opacity:0.2"
         transform="matrix(1.8531288,0,0,1.8077205,-321.13494,-762.42919)"
         id="g14948"
         clip-path="url(#Clip_3)">
        <path
           style="fill:#000000"
           inkscape:connector-curvature="0"
           id="path14946"
           d="m 298.021,459.313 53.898,182.853 -6.85,1.712 -51.02,-179.087 z" />
      </g>
      <g
         style="opacity:0.2"
         transform="matrix(1.8531288,0,0,1.8077205,-321.13494,-762.42919)"
         id="g14952"
         clip-path="url(#Clip_4)">
        <path
           style="fill:#000000"
           inkscape:connector-curvature="0"
           id="path14950"
           d="m 441.629,441.853 -89.028,162.988 -4.11,-12.67 82.868,-153.058 z" />
      </g>
      <path
         sodipodi:nodetypes="ccccccccccccccccccccccccccccccccccc"
         inkscape:connector-curvature="0"
         id="path57592"
         d="m 358.6432,615.20311 c -0.0445,-27.32351 8.53817,-53.74283 9.51596,-80.98301 16.30427,-10.01186 25.37342,12.25206 31.05045,23.62226 9.30105,13.13736 -4.21438,10.96252 -3.80894,-1.42416 -5.10839,-15.46192 20.45203,-29.98469 18.78157,-7.92056 -14.28012,16.76323 -7.01893,-18.12818 -3.3343,-25.39312 5.13165,-20.63533 34.92377,-16.34043 37.02634,3.44334 -10.47583,23.47444 -20.53623,-19.38732 -1.57712,-22.33101 21.67972,-7.10854 11.24635,29.66123 -3.54898,15.28088 -4.738,-8.73014 5.50435,-41.9827 -13.08813,-29.921 -9.35041,16.00673 8.88036,35.91353 -2.65842,51.30504 -19.14271,14.13908 -23.77062,-16.33969 -25.01068,-29.63125 0.10218,-8.53575 -13.01144,-27.46874 1.27416,-14.34723 11.8486,14.82915 19.66129,32.18838 25.6826,50.06851 3.98259,19.08535 36.84719,30.30908 20.12666,51.6758 -13.03228,14.52201 -37.32549,14.15825 -54.35556,7.62159 -23.42862,-13.26629 11.01984,-29.76996 16.20582,-41.3796 0.7211,-10.67587 25.99368,-16.41253 15.98028,1.63307 -10.83434,6.0099 -38.0815,25.88697 -12.93378,31.62019 12.18808,7.60406 36.03548,-3.7748 18.29964,-15.77438 -15.20468,-15.22555 -23,-35.7863 -29.12329,-55.86608 -10.86742,-11.86472 -33.95024,-39.62456 -7.05975,-47.13686 22.43025,2.64812 22.05361,28.96425 27.74206,45.44155 8.57848,11.61284 -9.11556,29.69299 -10.22208,9.12182 -3.18186,-20.14901 -0.51907,-46.83839 20.66646,-56.21712 20.2089,-9.19823 28.91713,18.37923 24.61455,33.66136 2.85209,25.21667 -34.0667,6.86048 -14.88427,-5.69691 20.8927,-3.7849 15.32181,32.75812 -0.87726,35.3851 -10.89028,3.96729 -20.80227,-14.63927 -19.91571,-17.51677 1.08232,14.9409 -3.30915,46.77506 -24.57379,39.05453 -17.50001,-8.70643 0.77733,-43.26307 14.46773,-24.95763 10.98764,15.62612 -1.07654,48.41248 -23.16187,37.28604 -12.13582,-7.38958 -27.71218,-29.66345 -14.9013,-41.97748 15.44455,6.1713 0.72728,32.48577 0.50939,46.45342 -1.3291,13.3095 -0.76697,31.41796 -16.90844,35.79967 z"
         style="opacity:1;fill:#c13131;fill-opacity:1;stroke:none;stroke-width:1.66799998;stroke-linecap:round;stroke-linejoin:round;stroke-miterlimit:4;stroke-dasharray:none;stroke-opacity:1" />
    </g>
  </g>
</svg>
